<svg width="18" height="18" viewBox="0 0 18 18" fill="none" xmlns="http://www.w3.org/2000/svg">
	<path d="M1.87499 0H16.125C17.1605 0 18 0.839461 18 1.87499V16.125C18 17.1605 17.1605 18 16.125 18H1.87499C0.839461 18 0 17.1605 0 16.125V1.87499C0 0.839461 0.839461 0 1.87499 0Z" fill="#2196F3"/>
	<path d="M13.875 5.24999H15.375C15.5821 5.24999 15.75 5.08208 15.75 4.87498V2.62498C15.75 2.41791 15.5821 2.25 15.375 2.25H13.875C11.5968 2.25 9.74999 4.09683 9.74999 6.37499V8.24998H7.87501C7.66791 8.24998 7.5 8.41788 7.5 8.62499V10.875C7.5 11.0821 7.66791 11.25 7.87501 11.25H9.74999V18H12.75V11.25H14.625C14.7863 11.2499 14.9295 11.1466 14.9805 10.9935L15.7305 8.7435C15.7959 8.54701 15.6897 8.33467 15.4932 8.26921C15.4551 8.25652 15.4152 8.25001 15.375 8.24998H12.75V6.37499C12.75 5.75367 13.2537 5.24999 13.875 5.24999Z" fill="#FAFAFA"/>
</svg>
