<svg width="19" height="18" viewBox="0 0 19 18" fill="none" xmlns="http://www.w3.org/2000/svg">
    <path d="M18.2455 18.0002V17.9994H18.25V11.3979C18.25 8.16842 17.5547 5.68066 13.7792 5.68066C11.9642 5.68066 10.7462 6.67667 10.249 7.62092H10.1965V5.98216H6.6167V17.9994H10.3442V12.0489C10.3442 10.4822 10.6412 8.96717 12.5815 8.96717C14.4932 8.96717 14.5217 10.7552 14.5217 12.1494V18.0002H18.2455Z" fill="#0077B5"/>
    <path d="M0.546997 5.98242H4.279V17.9997H0.546997V5.98242Z" fill="#0077B5"/>
    <path d="M2.4115 0C1.21825 0 0.25 0.96825 0.25 2.1615C0.25 3.35475 1.21825 4.34325 2.4115 4.34325C3.60475 4.34325 4.573 3.35475 4.573 2.1615C4.57225 0.96825 3.604 0 2.4115 0V0Z" fill="#0077B5"/>
</svg>