<svg width="19" height="16" viewBox="0 0 19 16" fill="none" xmlns="http://www.w3.org/2000/svg">
	<path d="M6.1257 15.3162C12.9186 15.3162 16.6332 9.68861 16.6332 4.80875C16.6332 4.6489 16.6299 4.48973 16.6227 4.33139C17.3437 3.81009 17.9705 3.15956 18.4649 2.41908C17.8032 2.71324 17.091 2.91113 16.3441 3.00054C17.1066 2.54323 17.692 1.82005 17.968 0.957901C17.2545 1.38088 16.4643 1.68822 15.623 1.85425C14.9491 1.13643 13.9896 0.6875 12.9272 0.6875C10.8879 0.6875 9.23401 2.34136 9.23401 4.38001C9.23401 4.66991 9.26642 4.95171 9.32973 5.22211C6.26042 5.06762 3.53869 3.59819 1.71742 1.36357C1.40033 1.90932 1.21741 2.54337 1.21741 3.21985C1.21741 4.501 1.86945 5.63218 2.86083 6.29383C2.25493 6.27515 1.68584 6.10885 1.18829 5.83199C1.18775 5.84751 1.18775 5.86261 1.18775 5.87909C1.18775 7.66767 2.46065 9.16099 4.15063 9.49937C3.84026 9.58383 3.51369 9.62928 3.17682 9.62928C2.93924 9.62928 2.70771 9.60594 2.48262 9.56268C2.95284 11.03 4.31625 12.0978 5.93261 12.1277C4.66863 13.1184 3.0763 13.7085 1.34581 13.7085C1.04808 13.7085 0.753922 13.6915 0.464844 13.6574C2.0992 14.705 4.04008 15.3164 6.12584 15.3164" fill="#1DA1F2"/>
</svg>