<svg width="19" height="18" viewBox="0 0 19 18" fill="none" xmlns="http://www.w3.org/2000/svg">
	<path d="M9.75 0C4.78869 0 0.75 4.03869 0.75 9C0.75 13.9613 4.78869 18 9.75 18C14.7113 18 18.75 13.9613 18.75 9C18.75 4.03869 14.7113 0 9.75 0ZM9.75 1.28894C11.749 1.28894 13.5761 2.05327 14.9465 3.31055C14.7158 3.26533 14.4852 3.27437 14.259 3.35126C13.6349 3.56834 13.1013 4.47286 13.4947 5.23266C13.6756 5.5809 14.0374 6.07839 14.4309 6.59849C14.6842 6.93769 15.2359 8.16784 14.7611 9.97688C14.4264 11.2568 13.7254 13.4593 13.7254 13.4593L10.9259 5.31407H11.8078C11.9887 5.31407 12.1334 5.16935 12.1334 4.98844C12.1334 4.80754 11.9887 4.66281 11.8078 4.66281H7.5294C7.34849 4.66281 7.20377 4.80754 7.20377 4.98844C7.20377 5.16935 7.34849 5.31407 7.5294 5.31407H8.26658L9.54648 8.64724L7.88668 13.5995L5.10075 5.31407H5.98266C6.16357 5.31407 6.30829 5.16935 6.30829 4.98844C6.30829 4.80754 6.16357 4.66281 5.98266 4.66281H3.37764C4.7706 2.62764 7.10879 1.28894 9.75 1.28894ZM2.03894 9C2.03894 7.90101 2.2696 6.85628 2.68568 5.91106L6.39874 15.9422C3.82085 14.694 2.03894 12.0528 2.03894 9ZM7.51131 16.3764L9.91734 9.71457L12.3279 16.2678C11.5229 16.5528 10.6545 16.7111 9.75452 16.7111C8.97211 16.7111 8.22136 16.5935 7.51131 16.3764ZM13.8249 15.5442C14.3088 14.1196 15.9822 9.14925 16.2987 8.16332C16.5972 7.23618 16.8369 6.69347 16.8188 5.92462C17.2304 6.86985 17.4611 7.91005 17.4611 9C17.4611 11.7543 16.0048 14.1784 13.8249 15.5442Z" fill="#0071BC"/>
</svg>
